<?xml version="1.0" standalone="no"?>
<!DOCTYPE svg PUBLIC "-//W3C//DTD SVG 20010904//EN"
 "http://www.w3.org/TR/2001/REC-SVG-20010904/DTD/svg10.dtd">
<svg version="1.0" xmlns="http://www.w3.org/2000/svg"
 width="160.000000pt" height="160.000000pt" viewBox="0 0 160.000000 160.000000"
 preserveAspectRatio="xMidYMid meet">
<metadata>
Created by potrace 1.14, written by Peter Selinger 2001-2017
</metadata>
<g transform="translate(0.000000,160.000000) scale(0.100000,-0.100000)"
fill="#000000" stroke="none">
<path d="M0 800 l0 -800 800 0 800 0 0 800 0 800 -800 0 -800 0 0 -800z m1189
406 c9 -11 -10 -95 -89 -388 -55 -205 -105 -383 -110 -395 -13 -30 -48 -30
-59 0 -5 12 -51 158 -102 324 -51 167 -96 299 -100 295 -3 -4 -21 -61 -39
-127 -41 -147 -45 -157 -73 -153 -19 3 -29 24 -68 143 l-46 140 -12 -75 c-66
-407 -97 -511 -166 -556 -20 -13 -28 -14 -40 -4 -22 18 -19 35 14 68 40 39 63
124 112 404 22 128 43 248 46 265 6 38 25 56 50 51 13 -2 29 -41 64 -148 26
-80 50 -138 53 -130 3 8 21 71 41 140 19 68 41 130 48 137 22 22 45 4 60 -45
91 -305 182 -590 188 -584 3 4 44 146 89 317 46 171 88 316 93 323 13 16 32
15 46 -2z"/>
</g>
</svg>
